<svg width="25" height="13" viewBox="0 0 25 13" fill="none" xmlns="http://www.w3.org/2000/svg">
<path d="M0.377641 0.35244C0.880017 -0.116406 1.69445 -0.119628 2.19683 0.355662L13.4103 10.9377C13.9127 11.4114 13.9109 12.1767 13.4068 12.6472C13.1565 12.8808 12.8273 13 12.4998 13C12.1689 13 11.8397 12.8808 11.5894 12.6439L0.375926 2.06187C-0.126451 1.58819 -0.124735 0.822897 0.377641 0.35244ZM22.8015 0.355823C23.3038 -0.119467 24.1183 -0.116245 24.6206 0.352601C25.1247 0.823058 25.1264 1.58836 24.6258 2.06203L17.1793 9.08989C16.929 9.32673 16.5981 9.44596 16.2689 9.44596C15.9414 9.44596 15.6122 9.32673 15.3618 9.09311C14.8577 8.62266 14.856 7.85736 15.3567 7.38368L22.8015 0.355823Z" fill="black"/>
</svg>
