<?xml version="1.0" encoding="iso-8859-1"?>
<!-- Generator: Adobe Illustrator 16.0.0, SVG Export Plug-In . SVG Version: 6.00 Build 0)  -->
<!DOCTYPE svg PUBLIC "-//W3C//DTD SVG 1.1//EN" "http://www.w3.org/Graphics/SVG/1.1/DTD/svg11.dtd">
<svg version="1.1" id="Capa_1" xmlns="http://www.w3.org/2000/svg" xmlns:xlink="http://www.w3.org/1999/xlink" x="0px" y="0px"
	 width="63.066px" height="63.066px" viewBox="0 0 63.066 63.066" style="enable-background:new 0 0 63.066 63.066;"
	 xml:space="preserve">
<g>
	<path d="M32.036,0H12.393c-0.646,0-1.168,0.525-1.168,1.168c0,0.642,0.522,1.168,1.168,1.168h19.644
		c10.19,0,18.477,9.956,18.477,22.19v5.013c0,12.232-8.287,22.191-18.477,22.191H14.555l7.272-7.267
		c0.455-0.457,0.455-1.195,0-1.652c-0.456-0.456-1.196-0.456-1.651,0l-9.96,9.955l9.96,9.959c0.228,0.23,0.528,0.342,0.827,0.342
		s0.598-0.113,0.827-0.342c0.455-0.451,0.455-1.195,0-1.651l-7.007-7.008h17.216c11.476,0,20.812-10.999,20.812-24.524v-5.015
		C52.848,11.001,43.512,0,32.036,0z"/>
</g>
<g>
</g>
<g>
</g>
<g>
</g>
<g>
</g>
<g>
</g>
<g>
</g>
<g>
</g>
<g>
</g>
<g>
</g>
<g>
</g>
<g>
</g>
<g>
</g>
<g>
</g>
<g>
</g>
<g>
</g>
</svg>
