<?xml version="1.0" encoding="utf-8"?>
<!-- Generator: Adobe Illustrator 24.3.0, SVG Export Plug-In . SVG Version: 6.00 Build 0)  -->
<svg version="1.1" id="Слой_1" xmlns="http://www.w3.org/2000/svg" xmlns:xlink="http://www.w3.org/1999/xlink" x="0px" y="0px"
	 viewBox="0 0 260 150" style="enable-background:new 0 0 260 150;" xml:space="preserve">
<style type="text/css">
	.st0{fill:none;stroke:#A67C54;stroke-width:2;stroke-miterlimit:10;}
	.st1{fill:#831B28;}
	.st2{fill:none;stroke:#831B28;stroke-width:5.9;stroke-miterlimit:10;}
	.st3{font-family:'Tahoma';}
	.st4{font-size:60px;}
	.st5{fill:#A67C54;}
	.st6{font-size:10px;}
	.st7{font-family:'MyriadPro-Regular';}
</style>
<g>
	<g>
		<circle class="st0" cx="55.79" cy="42.38" r="3.71"/>
		<circle class="st0" cx="44.18" cy="47.64" r="3.61"/>
		<circle class="st0" cx="39.89" cy="57.6" r="3.68"/>
		<circle class="st0" cx="55.79" cy="73.56" r="4.22"/>
		<path class="st0" d="M45.23,66.67c-1.5-1.62,1.09-5.48,2.85-8.11c1.71-2.56,2.79-3.08,3.55-3.3c1.33-0.39,3.04-0.26,4.42,0.46
			c0.24,0.12,0.73,0.4,1.18,0.83c1.72,1.63,2.34,4.92,0.76,7.2c-1.18,1.71-3.12,2.17-5.97,2.85C49.45,67.2,46.4,67.93,45.23,66.67z"
			/>
		<path class="st0" d="M48.09,69.01l0,0.02c-0.47,2.13-2.58,3.48-4.72,3c-2.13-0.47-3.48-2.58-3-4.71c0.33-1.51,1.49-2.62,2.88-2.98
			c-0.46,2.13,0.89,4.23,3.01,4.7C46.89,69.18,47.52,69.16,48.09,69.01z"/>
		<path class="st0" d="M75.9,42.06c1.61-1.96,2.74-3.38,2.74-3.38s3.61-4.01,2.73-5.58c-0.87-1.57-5,1.05-6.51,2.09
			c-0.39,0.27-1.75,1.3-3.53,2.69c-4.26-3.06-9.48-4.86-15.13-4.86c-14.35,0-25.99,11.64-25.99,25.99C30.2,73.36,41.84,85,56.2,85
			c3.67,0,7.16-0.76,10.33-2.14c-3.18-6.03-2.99-14.3,3.57-18.1c3.55-2.05,7.77-1.85,11.53-0.36c0.37-1.74,0.57-3.55,0.57-5.4
			C82.19,52.53,79.81,46.61,75.9,42.06z"/>
		<path class="st0" d="M81.37,33.09c-0.87-1.57-5,1.05-6.51,2.09c-1.51,1.05-17.45,13.38-16.64,14.66c0.09,0.13,0.2,0.29,0.34,0.46
			c2.12,0.1,3.8,1.84,3.8,3.98c0,0.04,0,0.07-0.01,0.11c0.03,0.08,0.72,1.55,4.01-1.46c3.37-3.08,12.27-14.25,12.27-14.25
			S82.24,34.66,81.37,33.09z"/>
		<circle class="st0" cx="59.16" cy="53.84" r="3.07"/>
	</g>
	<path class="st1" d="M131,81.95H123c-0.55,0-1-0.45-1-1v-3.91c0-0.55,0.45-1,1-1H131c0.55,0,1,0.45,1,1v3.91
		C132,81.5,131.55,81.95,131,81.95z"/>
	<g>
		<path class="st2" d="M107.07,41c-7.36,0-13.33,6.06-13.33,13.54c0,24.46,0,24.46,0,24.46h26.67V54.54
			C120.4,47.06,114.43,41,107.07,41z"/>
	</g>
	<text transform="matrix(1.0046 0 0 1 157.916 81.7273)" class="st1 st3 st4">Ш</text>
	<rect x="82" y="76.05" class="st1" width="10" height="5.9"/>
	<text transform="matrix(1.1358 0 0 1 81.6592 95.8721)" class="st5 st3 st6">ДЕТСКАЯ</text>
	<text transform="matrix(1.1358 0 0 1 80.6592 107.8721)" class="st5 st3 st6">ХУДОЖЕСТВЕННАЯ</text>
	<text transform="matrix(1.1358 0 0 1 80.6592 118.8721)" class="st5 st3 st6">ШКОЛА  КАНСК</text>
	<text transform="matrix(1.1358 0 0 1 121.2764 115.4893)" class="st5 st7 st6"> .</text>
	<text transform="matrix(1.1358 0 0 1 124.2119 81.7656)" class="st1 st3 st4">Х</text>
</g>
</svg>
