<svg id="Слой_1" data-name="Слой 1" xmlns="http://www.w3.org/2000/svg" viewBox="0 0 260 150"><defs><style>.cls-1{fill:#aa7b4d;}.cls-2,.cls-4{fill:none;stroke:#fff;stroke-miterlimit:10;}.cls-2{stroke-width:3px;}.cls-3,.cls-5,.cls-6,.cls-7{fill:#fff;}.cls-4{stroke-width:5.9px;}.cls-5{font-size:60px;}.cls-5,.cls-6{font-family:Tahoma;}.cls-6,.cls-7{font-size:10px;}.cls-7{font-family:MyriadPro-Regular, Myriad Pro;}</style></defs><rect class="cls-1" width="260" height="150"/><circle class="cls-2" cx="55.79" cy="42.38" r="3.71"/><circle class="cls-2" cx="44.18" cy="47.64" r="3.61"/><circle class="cls-2" cx="39.89" cy="57.6" r="3.68"/><circle class="cls-2" cx="55.79" cy="73.56" r="4.22"/><path class="cls-2" d="M45.23,66.67c-1.49-1.62,1.09-5.49,2.86-8.12s2.79-3.08,3.54-3.3a6.22,6.22,0,0,1,4.43.46,5.29,5.29,0,0,1,1.18.82A5.85,5.85,0,0,1,58,63.74c-1.18,1.71-3.12,2.17-6,2.85C49.45,67.2,46.4,67.93,45.23,66.67Z"/><path class="cls-2" d="M48.09,69v0a4,4,0,1,1-4.84-4.69,4,4,0,0,0,3,4.7A3.85,3.85,0,0,0,48.09,69Z"/><path class="cls-2" d="M75.9,42.06c1.6-2,2.73-3.38,2.73-3.38s3.61-4,2.74-5.59-5,1-6.52,2.1c-.39.27-1.75,1.3-3.53,2.69a26,26,0,1,0-4.8,45c-3.17-6-3-14.29,3.58-18.09,3.54-2.06,7.77-1.86,11.52-.36A26,26,0,0,0,75.9,42.06Z"/><path class="cls-2" d="M81.37,33.09c-.87-1.57-5,1-6.52,2.1S57.4,48.57,58.22,49.85c.08.13.2.29.33.46a4,4,0,0,1,3.81,4s0,.07,0,.11.72,1.55,4-1.46S78.63,38.68,78.63,38.68,82.24,34.66,81.37,33.09Z"/><circle class="cls-2" cx="59.16" cy="53.84" r="3.07"/><rect class="cls-3" x="122" y="76.05" width="10" height="5.9" rx="1"/><path class="cls-4" d="M107.07,41A13.44,13.44,0,0,0,93.73,54.54V79H120.4V54.54A13.44,13.44,0,0,0,107.07,41Z"/><text class="cls-5" transform="translate(157.92 81.73)">Ш</text><rect class="cls-3" x="82" y="76.05" width="10" height="5.9"/><text class="cls-6" transform="translate(81.66 95.87) scale(1.14 1)">ДЕТСКАЯ</text><text class="cls-6" transform="translate(80.66 107.87) scale(1.14 1)">ХУДОЖЕСТВЕННАЯ</text><text class="cls-6" transform="translate(80.66 118.87) scale(1.14 1)"><tspan xml:space="preserve">ШКОЛА  КАНСК</tspan></text><text class="cls-7" transform="translate(121.28 115.49) scale(1.14 1)"><tspan xml:space="preserve"> .</tspan></text><text class="cls-5" transform="translate(124.21 81.77) scale(1.14 1)">Х</text></svg>